<svg width="30" xmlns="http://www.w3.org/2000/svg" height="240" id="screenshot-b12f08d0-9930-80ab-8008-39bb79d12556" viewBox="0 0 30 240" xmlns:xlink="http://www.w3.org/1999/xlink" fill="none" version="1.1"><g id="shape-b12f08d0-9930-80ab-8008-39bb79d12556"><g class="frame-container-wrapper"><g class="frame-container-blur"><g class="frame-container-shadows"><g fill="none"><g class="fills" id="fills-b12f08d0-9930-80ab-8008-39bb79d12556"><rect rx="0" ry="0" x="0" y="0" width="30" height="239.99999999999994" transform="matrix(1.000000, 0.000000, 0.000000, 1.000000, 0.000000, 0.000000)" class="frame-background"/></g><g class="frame-children"><g id="shape-b12f08d0-9930-80ab-8008-39ba13944390"><g class="fills" id="fills-b12f08d0-9930-80ab-8008-39ba13944390"><rect rx="15" ry="15" x="-104.99999999999997" y="104.99999999999994" transform="matrix(0.000000, 1.000000, -1.000000, 0.000000, 135.000000, 105.000000)" width="239.99999999999994" height="30" style="fill: rgb(0, 0, 0); fill-opacity: 1;"/></g></g><g id="shape-b12f08d0-9930-80ab-8008-39ba2cbef7ee"><g class="fills" id="fills-b12f08d0-9930-80ab-8008-39ba2cbef7ee"><rect rx="3.5000000000000004" ry="3.5000000000000004" x="3" y="225" transform="matrix(1.000000, 0.000000, 0.000000, 1.000000, 0.000000, 0.000000)" width="24" height="7" style="fill: rgb(0, 255, 0); fill-opacity: 1;"/></g></g><g id="shape-b12f08d0-9930-80ab-8008-39bade06db27"><g class="fills" id="fills-b12f08d0-9930-80ab-8008-39bade06db27"><rect rx="3.5000000000000004" ry="3.5000000000000004" x="3" y="217" transform="matrix(1.000000, 0.000000, 0.000000, 1.000000, 0.000000, 0.000000)" width="24" height="7" style="fill: rgb(0, 255, 0); fill-opacity: 1;"/></g></g><g id="shape-b12f08d0-9930-80ab-8008-39bae6a81ab7"><g class="fills" id="fills-b12f08d0-9930-80ab-8008-39bae6a81ab7"><rect rx="3.5000000000000004" ry="3.5000000000000004" x="3" y="209" transform="matrix(1.000000, 0.000000, 0.000000, 1.000000, 0.000000, 0.000000)" width="24" height="7" style="fill: rgb(0, 255, 0); fill-opacity: 1;"/></g></g><g id="shape-b12f08d0-9930-80ab-8008-39bb3e6be0a3"><g class="fills" id="fills-b12f08d0-9930-80ab-8008-39bb3e6be0a3"><rect rx="3.5000000000000004" ry="3.5000000000000004" x="3" y="201" transform="matrix(1.000000, 0.000000, 0.000000, 1.000000, 0.000000, 0.000000)" width="24" height="7" style="fill: rgb(0, 255, 0); fill-opacity: 1;"/></g></g><g id="shape-b12f08d0-9930-80ab-8008-39bb4dbd98a1"><g class="fills" id="fills-b12f08d0-9930-80ab-8008-39bb4dbd98a1"><rect rx="3.5000000000000004" ry="3.5000000000000004" x="3" y="193" transform="matrix(1.000000, 0.000000, 0.000000, 1.000000, 0.000000, 0.000000)" width="24" height="7" style="fill: rgb(0, 255, 0); fill-opacity: 1;"/></g></g><g id="shape-b12f08d0-9930-80ab-8008-39bb4dbd98a2"><g class="fills" id="fills-b12f08d0-9930-80ab-8008-39bb4dbd98a2"><rect rx="3.5000000000000004" ry="3.5000000000000004" x="3" y="185" transform="matrix(1.000000, 0.000000, 0.000000, 1.000000, 0.000000, 0.000000)" width="24" height="7" style="fill: rgb(0, 255, 0); fill-opacity: 1;"/></g></g><g id="shape-b12f08d0-9930-80ab-8008-39bb4dbd98a3"><g class="fills" id="fills-b12f08d0-9930-80ab-8008-39bb4dbd98a3"><rect rx="3.5000000000000004" ry="3.5000000000000004" x="3" y="177" transform="matrix(1.000000, 0.000000, 0.000000, 1.000000, 0.000000, 0.000000)" width="24" height="7" style="fill: rgb(0, 255, 0); fill-opacity: 1;"/></g></g><g id="shape-b12f08d0-9930-80ab-8008-39bb4dbd98a4"><g class="fills" id="fills-b12f08d0-9930-80ab-8008-39bb4dbd98a4"><rect rx="3.5000000000000004" ry="3.5000000000000004" x="3" y="169" transform="matrix(1.000000, 0.000000, 0.000000, 1.000000, 0.000000, 0.000000)" width="24" height="7" style="fill: rgb(0, 255, 0); fill-opacity: 1;"/></g></g><g id="shape-b12f08d0-9930-80ab-8008-39bb51dcc8fe"><g class="fills" id="fills-b12f08d0-9930-80ab-8008-39bb51dcc8fe"><rect rx="3.5000000000000004" ry="3.5000000000000004" x="3" y="161" transform="matrix(1.000000, 0.000000, 0.000000, 1.000000, 0.000000, 0.000000)" width="24" height="7" style="fill: rgb(0, 255, 0); fill-opacity: 1;"/></g></g><g id="shape-b12f08d0-9930-80ab-8008-39bb51dcc8ff"><g class="fills" id="fills-b12f08d0-9930-80ab-8008-39bb51dcc8ff"><rect rx="3.5000000000000004" ry="3.5000000000000004" x="3" y="153" transform="matrix(1.000000, 0.000000, 0.000000, 1.000000, 0.000000, 0.000000)" width="24" height="7" style="fill: rgb(0, 255, 0); fill-opacity: 1;"/></g></g><g id="shape-b12f08d0-9930-80ab-8008-39bb51dcc900"><g class="fills" id="fills-b12f08d0-9930-80ab-8008-39bb51dcc900"><rect rx="3.5000000000000004" ry="3.5000000000000004" x="3" y="145" transform="matrix(1.000000, 0.000000, 0.000000, 1.000000, 0.000000, 0.000000)" width="24" height="7" style="fill: rgb(0, 255, 0); fill-opacity: 1;"/></g></g><g id="shape-b12f08d0-9930-80ab-8008-39bb51dcc901"><g class="fills" id="fills-b12f08d0-9930-80ab-8008-39bb51dcc901"><rect rx="3.5000000000000004" ry="3.5000000000000004" x="3" y="137" transform="matrix(1.000000, 0.000000, 0.000000, 1.000000, 0.000000, 0.000000)" width="24" height="7" style="fill: rgb(0, 255, 0); fill-opacity: 1;"/></g></g><g id="shape-b12f08d0-9930-80ab-8008-39bb577ae042"><g class="fills" id="fills-b12f08d0-9930-80ab-8008-39bb577ae042"><rect rx="3.5000000000000004" ry="3.5000000000000004" x="3" y="129" transform="matrix(1.000000, 0.000000, 0.000000, 1.000000, 0.000000, 0.000000)" width="24" height="7" style="fill: rgb(0, 255, 0); fill-opacity: 1;"/></g></g><g id="shape-b12f08d0-9930-80ab-8008-39bb577ae043"><g class="fills" id="fills-b12f08d0-9930-80ab-8008-39bb577ae043"><rect rx="3.5000000000000004" ry="3.5000000000000004" x="3" y="121" transform="matrix(1.000000, 0.000000, 0.000000, 1.000000, 0.000000, 0.000000)" width="24" height="7" style="fill: rgb(0, 255, 0); fill-opacity: 1;"/></g></g><g id="shape-b12f08d0-9930-80ab-8008-39bb577ae044"><g class="fills" id="fills-b12f08d0-9930-80ab-8008-39bb577ae044"><rect rx="3.5000000000000004" ry="3.5000000000000004" x="3" y="113" transform="matrix(1.000000, 0.000000, 0.000000, 1.000000, 0.000000, 0.000000)" width="24" height="7" style="fill: rgb(0, 255, 0); fill-opacity: 1;"/></g></g><g id="shape-b12f08d0-9930-80ab-8008-39bb577ae045"><g class="fills" id="fills-b12f08d0-9930-80ab-8008-39bb577ae045"><rect rx="3.5000000000000004" ry="3.5000000000000004" x="3" y="105" transform="matrix(1.000000, 0.000000, 0.000000, 1.000000, 0.000000, 0.000000)" width="24" height="7" style="fill: rgb(0, 255, 0); fill-opacity: 1;"/></g></g><g id="shape-b12f08d0-9930-80ab-8008-39bb5d78d756"><g class="fills" id="fills-b12f08d0-9930-80ab-8008-39bb5d78d756"><rect rx="3.5000000000000004" ry="3.5000000000000004" x="3" y="97" transform="matrix(1.000000, 0.000000, 0.000000, 1.000000, 0.000000, 0.000000)" width="24" height="7" style="fill: rgb(0, 255, 0); fill-opacity: 1;"/></g></g><g id="shape-b12f08d0-9930-80ab-8008-39bb5d78d757"><g class="fills" id="fills-b12f08d0-9930-80ab-8008-39bb5d78d757"><rect rx="3.5000000000000004" ry="3.5000000000000004" x="3" y="89" transform="matrix(1.000000, 0.000000, 0.000000, 1.000000, 0.000000, 0.000000)" width="24" height="7" style="fill: rgb(0, 255, 0); fill-opacity: 1;"/></g></g><g id="shape-b12f08d0-9930-80ab-8008-39bb5d78d758"><g class="fills" id="fills-b12f08d0-9930-80ab-8008-39bb5d78d758"><rect rx="3.5000000000000004" ry="3.5000000000000004" x="3" y="81" transform="matrix(1.000000, 0.000000, 0.000000, 1.000000, 0.000000, 0.000000)" width="24" height="7" style="fill: rgb(0, 255, 0); fill-opacity: 1;"/></g></g><g id="shape-b12f08d0-9930-80ab-8008-39bb5d78d759"><g class="fills" id="fills-b12f08d0-9930-80ab-8008-39bb5d78d759"><rect rx="3.5000000000000004" ry="3.5000000000000004" x="3" y="73" transform="matrix(1.000000, 0.000000, 0.000000, 1.000000, 0.000000, 0.000000)" width="24" height="7" style="fill: rgb(0, 255, 0); fill-opacity: 1;"/></g></g><g id="shape-b12f08d0-9930-80ab-8008-39bb611cc13b"><g class="fills" id="fills-b12f08d0-9930-80ab-8008-39bb611cc13b"><rect rx="3.5000000000000004" ry="3.5000000000000004" x="3" y="65" transform="matrix(1.000000, 0.000000, 0.000000, 1.000000, 0.000000, 0.000000)" width="24" height="7" style="fill: rgb(0, 255, 0); fill-opacity: 1;"/></g></g><g id="shape-b12f08d0-9930-80ab-8008-39bb611cc13c"><g class="fills" id="fills-b12f08d0-9930-80ab-8008-39bb611cc13c"><rect rx="3.5000000000000004" ry="3.5000000000000004" x="3" y="57" transform="matrix(1.000000, 0.000000, 0.000000, 1.000000, 0.000000, 0.000000)" width="24" height="7" style="fill: rgb(0, 255, 0); fill-opacity: 1;"/></g></g><g id="shape-b12f08d0-9930-80ab-8008-39bb611cc13d"><g class="fills" id="fills-b12f08d0-9930-80ab-8008-39bb611cc13d"><rect rx="3.5000000000000004" ry="3.5000000000000004" x="3" y="49" transform="matrix(1.000000, 0.000000, 0.000000, 1.000000, 0.000000, 0.000000)" width="24" height="7" style="fill: rgb(0, 255, 0); fill-opacity: 1;"/></g></g><g id="shape-b12f08d0-9930-80ab-8008-39bb611cc13e"><g class="fills" id="fills-b12f08d0-9930-80ab-8008-39bb611cc13e"><rect rx="3.5000000000000004" ry="3.5000000000000004" x="3" y="41" transform="matrix(1.000000, 0.000000, 0.000000, 1.000000, 0.000000, 0.000000)" width="24" height="7" style="fill: rgb(0, 255, 0); fill-opacity: 1;"/></g></g><g id="shape-b12f08d0-9930-80ab-8008-39bb649f5792"><g class="fills" id="fills-b12f08d0-9930-80ab-8008-39bb649f5792"><rect rx="3.5000000000000004" ry="3.5000000000000004" x="3" y="33" transform="matrix(1.000000, 0.000000, 0.000000, 1.000000, 0.000000, 0.000000)" width="24" height="7" style="fill: rgb(0, 255, 0); fill-opacity: 1;"/></g></g><g id="shape-b12f08d0-9930-80ab-8008-39bb649f5793"><g class="fills" id="fills-b12f08d0-9930-80ab-8008-39bb649f5793"><rect rx="3.5000000000000004" ry="3.5000000000000004" x="3" y="25" transform="matrix(1.000000, 0.000000, 0.000000, 1.000000, 0.000000, 0.000000)" width="24" height="7" style="fill: rgb(0, 255, 0); fill-opacity: 1;"/></g></g><g id="shape-b12f08d0-9930-80ab-8008-39bb649f5794"><g class="fills" id="fills-b12f08d0-9930-80ab-8008-39bb649f5794"><rect rx="3.5000000000000004" ry="3.5000000000000004" x="3" y="17" transform="matrix(1.000000, 0.000000, 0.000000, 1.000000, 0.000000, 0.000000)" width="24" height="7" style="fill: rgb(0, 255, 0); fill-opacity: 1;"/></g></g><g id="shape-b12f08d0-9930-80ab-8008-39bb649f5795"><g class="fills" id="fills-b12f08d0-9930-80ab-8008-39bb649f5795"><rect rx="3.5000000000000004" ry="3.5000000000000004" x="3" y="9" transform="matrix(1.000000, 0.000000, 0.000000, 1.000000, 0.000000, 0.000000)" width="24" height="7" style="fill: rgb(0, 255, 0); fill-opacity: 1;"/></g></g></g></g></g></g></g></g></svg>