<svg width="32" xmlns="http://www.w3.org/2000/svg" height="64" id="screenshot-70072270-d2a0-80f6-8008-38f9f9679071" viewBox="0 0 32 64" xmlns:xlink="http://www.w3.org/1999/xlink" fill="none" version="1.1"><g id="shape-70072270-d2a0-80f6-8008-38f9f9679071"><g class="frame-container-wrapper"><g class="frame-container-blur"><g class="frame-container-shadows"><g fill="none"><g class="fills" id="fills-70072270-d2a0-80f6-8008-38f9f9679071"><rect rx="0" ry="0" x="0" y="0" width="32" height="64" transform="matrix(1.000000, 0.000000, 0.000000, 1.000000, 0.000000, 0.000000)" class="frame-background"/></g><g class="frame-children"><g id="shape-70072270-d2a0-80f6-8008-38f6c1129b11"><g class="fills" id="fills-70072270-d2a0-80f6-8008-38f6c1129b11"><path d="M0,14.76922607421875C0,6.6178741455078125,7.1693572998046875,0,16,0L16,0C24.830642700195312,0,32,6.6178741455078125,32,14.76922607421875L32,49.23077392578125C32,57.38214111328125,24.830642700195312,64,16,64L16,64C7.1693572998046875,64,0,57.38214111328125,0,49.23077392578125L0,33.88941955566406L0,14.76922607421875" style="fill: rgb(0, 225, 0); fill-opacity: 1;"/></g></g><g id="shape-70072270-d2a0-80f6-8008-38f7b327dd12"><g class="fills" id="fills-70072270-d2a0-80f6-8008-38f7b327dd12"><ellipse cx="16" cy="16" rx="14" ry="14" transform="matrix(1.000000, 0.000000, 0.000000, 1.000000, 0.000000, 0.000000)" style="fill: rgb(251, 252, 255); fill-opacity: 1;"/></g></g></g></g></g></g></g></g></svg>